<svg width="67" height="69" viewBox="0 0 67 69" fill="none" xmlns="http://www.w3.org/2000/svg">
<path fill-rule="evenodd" clip-rule="evenodd" d="M48.0435 49.4068C42.9204 49.4068 38.768 45.2981 38.768 40.2313C38.768 35.1633 42.9204 31.0553 48.0435 31.0553C53.1665 31.0553 57.319 35.1633 57.319 40.2313C57.319 45.2981 53.1665 49.4068 48.0435 49.4068ZM50.8201 22.5652V14.4029C52.9739 13.3961 54.4829 11.241 54.4829 8.73956V8.55069C54.4829 5.09865 51.6275 2.27385 48.1379 2.27385H47.9484C44.4588 2.27385 41.6034 5.09865 41.6034 8.55069V8.73956C41.6034 11.241 43.1118 13.3973 45.2656 14.4035V22.5652C42.0593 23.0562 39.1294 24.3644 36.713 26.2899L14.0583 8.85587C14.2078 8.28804 14.3129 7.70332 14.3135 7.08858C14.3172 3.17939 11.1185 0.0050075 7.1655 4.53568e-06C3.21378 -0.0043731 0.00438212 3.16063 4.48785e-06 7.07107C-0.00437314 10.9809 3.1944 14.1553 7.14736 14.1596C8.435 14.1615 9.62758 13.7994 10.6726 13.2116L32.957 30.3624C31.0622 33.1922 29.9515 36.5817 29.9515 40.2313C29.9515 44.0517 31.1722 47.5857 33.2334 50.4924L26.4569 57.197C25.921 57.0375 25.3657 56.9268 24.7766 56.9268C21.529 56.9268 18.8956 59.5315 18.8956 62.744C18.8956 65.9578 21.529 68.5625 24.7766 68.5625C28.0247 68.5625 30.6575 65.9578 30.6575 62.744C30.6575 62.1631 30.5456 61.6127 30.3843 61.0824L37.0876 54.451C40.1306 56.748 43.9204 58.1288 48.0435 58.1288C58.0356 58.1288 66.1342 50.1153 66.1342 40.2313C66.1342 31.2829 59.4896 23.8904 50.8201 22.5652Z" fill="#FF7A59"/>
</svg>
